<mxfile host="app.diagrams.net" modified="2023-10-18T13:11:22.325Z" agent="Mozilla/5.0 (Windows NT 10.0; Win64; x64) AppleWebKit/537.36 (KHTML, like Gecko) Chrome/117.0.0.0 Safari/537.36" etag="t_cwqoqnWAJpkEiCLzWP" version="22.0.4" type="github">
  <diagram id="C5RBs43oDa-KdzZeNtuy" name="Page-1">
    <mxGraphModel dx="1173" dy="637" grid="1" gridSize="10" guides="1" tooltips="1" connect="1" arrows="1" fold="1" page="1" pageScale="1" pageWidth="827" pageHeight="1169" math="0" shadow="0">
      <root>
        <mxCell id="WIyWlLk6GJQsqaUBKTNV-0" />
        <mxCell id="WIyWlLk6GJQsqaUBKTNV-1" parent="WIyWlLk6GJQsqaUBKTNV-0" />
        <mxCell id="3Cw7kzN6KSSoNnA2k862-5" value="" style="edgeStyle=orthogonalEdgeStyle;rounded=0;orthogonalLoop=1;jettySize=auto;html=1;" edge="1" parent="WIyWlLk6GJQsqaUBKTNV-1" source="3Cw7kzN6KSSoNnA2k862-0" target="3Cw7kzN6KSSoNnA2k862-4">
          <mxGeometry relative="1" as="geometry" />
        </mxCell>
        <mxCell id="3Cw7kzN6KSSoNnA2k862-0" value="MULAI" style="strokeWidth=2;html=1;shape=mxgraph.flowchart.terminator;whiteSpace=wrap;" vertex="1" parent="WIyWlLk6GJQsqaUBKTNV-1">
          <mxGeometry x="368" y="10" width="100" height="50" as="geometry" />
        </mxCell>
        <mxCell id="3Cw7kzN6KSSoNnA2k862-8" value="" style="edgeStyle=orthogonalEdgeStyle;rounded=0;orthogonalLoop=1;jettySize=auto;html=1;" edge="1" parent="WIyWlLk6GJQsqaUBKTNV-1" source="3Cw7kzN6KSSoNnA2k862-4" target="3Cw7kzN6KSSoNnA2k862-7">
          <mxGeometry relative="1" as="geometry" />
        </mxCell>
        <mxCell id="3Cw7kzN6KSSoNnA2k862-4" value="&quot;GAME TEBAK ANGKA&quot;" style="shape=parallelogram;html=1;strokeWidth=2;perimeter=parallelogramPerimeter;whiteSpace=wrap;rounded=1;arcSize=12;size=0.23;" vertex="1" parent="WIyWlLk6GJQsqaUBKTNV-1">
          <mxGeometry x="315" y="100" width="205.5" height="50" as="geometry" />
        </mxCell>
        <mxCell id="3Cw7kzN6KSSoNnA2k862-10" value="" style="edgeStyle=orthogonalEdgeStyle;rounded=0;orthogonalLoop=1;jettySize=auto;html=1;" edge="1" parent="WIyWlLk6GJQsqaUBKTNV-1" source="3Cw7kzN6KSSoNnA2k862-7" target="3Cw7kzN6KSSoNnA2k862-9">
          <mxGeometry relative="1" as="geometry" />
        </mxCell>
        <mxCell id="3Cw7kzN6KSSoNnA2k862-7" value="&lt;div style=&quot;text-align: left;&quot;&gt;&lt;span style=&quot;background-color: initial;&quot;&gt;A = RANDOM (1-100)&lt;/span&gt;&lt;/div&gt;&lt;div style=&quot;text-align: left;&quot;&gt;&lt;span style=&quot;background-color: initial;&quot;&gt;K = 3&lt;/span&gt;&lt;/div&gt;" style="rounded=1;whiteSpace=wrap;html=1;absoluteArcSize=1;arcSize=14;strokeWidth=2;" vertex="1" parent="WIyWlLk6GJQsqaUBKTNV-1">
          <mxGeometry x="333" y="190" width="170" height="70" as="geometry" />
        </mxCell>
        <mxCell id="3Cw7kzN6KSSoNnA2k862-12" value="" style="edgeStyle=orthogonalEdgeStyle;rounded=0;orthogonalLoop=1;jettySize=auto;html=1;" edge="1" parent="WIyWlLk6GJQsqaUBKTNV-1" source="3Cw7kzN6KSSoNnA2k862-9" target="3Cw7kzN6KSSoNnA2k862-11">
          <mxGeometry relative="1" as="geometry" />
        </mxCell>
        <mxCell id="3Cw7kzN6KSSoNnA2k862-9" value="TEBAKAN = T" style="shape=parallelogram;html=1;strokeWidth=2;perimeter=parallelogramPerimeter;whiteSpace=wrap;rounded=1;arcSize=12;size=0.23;" vertex="1" parent="WIyWlLk6GJQsqaUBKTNV-1">
          <mxGeometry x="315" y="310" width="205.5" height="50" as="geometry" />
        </mxCell>
        <mxCell id="3Cw7kzN6KSSoNnA2k862-43" value="" style="edgeStyle=orthogonalEdgeStyle;rounded=0;orthogonalLoop=1;jettySize=auto;html=1;" edge="1" parent="WIyWlLk6GJQsqaUBKTNV-1" source="3Cw7kzN6KSSoNnA2k862-11" target="3Cw7kzN6KSSoNnA2k862-42">
          <mxGeometry relative="1" as="geometry" />
        </mxCell>
        <mxCell id="3Cw7kzN6KSSoNnA2k862-11" value="&lt;div style=&quot;text-align: left;&quot;&gt;K = K - 1&lt;/div&gt;" style="rounded=1;whiteSpace=wrap;html=1;absoluteArcSize=1;arcSize=14;strokeWidth=2;" vertex="1" parent="WIyWlLk6GJQsqaUBKTNV-1">
          <mxGeometry x="313.5" y="430" width="209" height="70" as="geometry" />
        </mxCell>
        <mxCell id="3Cw7kzN6KSSoNnA2k862-16" value="" style="edgeStyle=orthogonalEdgeStyle;rounded=0;orthogonalLoop=1;jettySize=auto;html=1;" edge="1" parent="WIyWlLk6GJQsqaUBKTNV-1" source="3Cw7kzN6KSSoNnA2k862-13" target="3Cw7kzN6KSSoNnA2k862-14">
          <mxGeometry relative="1" as="geometry" />
        </mxCell>
        <mxCell id="3Cw7kzN6KSSoNnA2k862-21" style="edgeStyle=orthogonalEdgeStyle;rounded=0;orthogonalLoop=1;jettySize=auto;html=1;exitX=1;exitY=0.5;exitDx=0;exitDy=0;exitPerimeter=0;entryX=0.5;entryY=1;entryDx=0;entryDy=0;" edge="1" parent="WIyWlLk6GJQsqaUBKTNV-1" source="3Cw7kzN6KSSoNnA2k862-13" target="3Cw7kzN6KSSoNnA2k862-19">
          <mxGeometry relative="1" as="geometry" />
        </mxCell>
        <mxCell id="3Cw7kzN6KSSoNnA2k862-13" value="T&amp;lt;A" style="strokeWidth=2;html=1;shape=mxgraph.flowchart.decision;whiteSpace=wrap;" vertex="1" parent="WIyWlLk6GJQsqaUBKTNV-1">
          <mxGeometry x="329.75" y="660" width="176" height="100" as="geometry" />
        </mxCell>
        <mxCell id="3Cw7kzN6KSSoNnA2k862-38" value="" style="edgeStyle=orthogonalEdgeStyle;rounded=0;orthogonalLoop=1;jettySize=auto;html=1;" edge="1" parent="WIyWlLk6GJQsqaUBKTNV-1" source="3Cw7kzN6KSSoNnA2k862-14">
          <mxGeometry relative="1" as="geometry">
            <mxPoint x="416.5714285714289" y="970" as="targetPoint" />
          </mxGeometry>
        </mxCell>
        <mxCell id="3Cw7kzN6KSSoNnA2k862-46" style="edgeStyle=orthogonalEdgeStyle;rounded=0;orthogonalLoop=1;jettySize=auto;html=1;entryX=1;entryY=0.5;entryDx=0;entryDy=0;" edge="1" parent="WIyWlLk6GJQsqaUBKTNV-1" source="3Cw7kzN6KSSoNnA2k862-14" target="3Cw7kzN6KSSoNnA2k862-18">
          <mxGeometry relative="1" as="geometry" />
        </mxCell>
        <mxCell id="3Cw7kzN6KSSoNnA2k862-14" value="T&amp;gt;A" style="strokeWidth=2;html=1;shape=mxgraph.flowchart.decision;whiteSpace=wrap;" vertex="1" parent="WIyWlLk6GJQsqaUBKTNV-1">
          <mxGeometry x="329" y="810" width="176" height="100" as="geometry" />
        </mxCell>
        <mxCell id="3Cw7kzN6KSSoNnA2k862-49" style="edgeStyle=orthogonalEdgeStyle;rounded=0;orthogonalLoop=1;jettySize=auto;html=1;" edge="1" parent="WIyWlLk6GJQsqaUBKTNV-1" source="3Cw7kzN6KSSoNnA2k862-18">
          <mxGeometry relative="1" as="geometry">
            <mxPoint x="420" y="380" as="targetPoint" />
          </mxGeometry>
        </mxCell>
        <mxCell id="3Cw7kzN6KSSoNnA2k862-18" value="&quot;ANGKA TERLALU BESAR&quot;" style="shape=parallelogram;html=1;strokeWidth=2;perimeter=parallelogramPerimeter;whiteSpace=wrap;rounded=1;arcSize=12;size=0.23;" vertex="1" parent="WIyWlLk6GJQsqaUBKTNV-1">
          <mxGeometry x="583" y="340" width="225.5" height="50" as="geometry" />
        </mxCell>
        <mxCell id="3Cw7kzN6KSSoNnA2k862-50" style="edgeStyle=orthogonalEdgeStyle;rounded=0;orthogonalLoop=1;jettySize=auto;html=1;" edge="1" parent="WIyWlLk6GJQsqaUBKTNV-1" source="3Cw7kzN6KSSoNnA2k862-19">
          <mxGeometry relative="1" as="geometry">
            <mxPoint x="420" y="410" as="targetPoint" />
            <Array as="points">
              <mxPoint x="491" y="420" />
              <mxPoint x="491" y="410" />
            </Array>
          </mxGeometry>
        </mxCell>
        <mxCell id="3Cw7kzN6KSSoNnA2k862-19" value="&quot;ANGKA TERLALU KECIL&quot;" style="shape=parallelogram;html=1;strokeWidth=2;perimeter=parallelogramPerimeter;whiteSpace=wrap;rounded=1;arcSize=12;size=0.23;" vertex="1" parent="WIyWlLk6GJQsqaUBKTNV-1">
          <mxGeometry x="560" y="410" width="220" height="50" as="geometry" />
        </mxCell>
        <mxCell id="3Cw7kzN6KSSoNnA2k862-30" value="YA" style="text;html=1;align=center;verticalAlign=middle;resizable=0;points=[];autosize=1;strokeColor=none;fillColor=none;" vertex="1" parent="WIyWlLk6GJQsqaUBKTNV-1">
          <mxGeometry x="543" y="690" width="40" height="30" as="geometry" />
        </mxCell>
        <mxCell id="3Cw7kzN6KSSoNnA2k862-33" value="YA" style="text;html=1;align=center;verticalAlign=middle;resizable=0;points=[];autosize=1;strokeColor=none;fillColor=none;" vertex="1" parent="WIyWlLk6GJQsqaUBKTNV-1">
          <mxGeometry x="543" y="840" width="40" height="30" as="geometry" />
        </mxCell>
        <mxCell id="3Cw7kzN6KSSoNnA2k862-34" value="TIDAK" style="text;html=1;align=center;verticalAlign=middle;resizable=0;points=[];autosize=1;strokeColor=none;fillColor=none;" vertex="1" parent="WIyWlLk6GJQsqaUBKTNV-1">
          <mxGeometry x="407" y="770" width="60" height="30" as="geometry" />
        </mxCell>
        <mxCell id="3Cw7kzN6KSSoNnA2k862-35" value="TIDAK" style="text;html=1;align=center;verticalAlign=middle;resizable=0;points=[];autosize=1;strokeColor=none;fillColor=none;" vertex="1" parent="WIyWlLk6GJQsqaUBKTNV-1">
          <mxGeometry x="407" y="920" width="60" height="30" as="geometry" />
        </mxCell>
        <mxCell id="3Cw7kzN6KSSoNnA2k862-39" value="" style="edgeStyle=orthogonalEdgeStyle;rounded=0;orthogonalLoop=1;jettySize=auto;html=1;" edge="1" parent="WIyWlLk6GJQsqaUBKTNV-1" target="3Cw7kzN6KSSoNnA2k862-37">
          <mxGeometry relative="1" as="geometry">
            <mxPoint x="416.5714285714289" y="1040" as="sourcePoint" />
          </mxGeometry>
        </mxCell>
        <mxCell id="3Cw7kzN6KSSoNnA2k862-36" value="&quot;SELAMAT ANGKA YANG ANDA TEBAK BENAR&quot;" style="shape=parallelogram;html=1;strokeWidth=2;perimeter=parallelogramPerimeter;whiteSpace=wrap;rounded=1;arcSize=12;size=0.23;" vertex="1" parent="WIyWlLk6GJQsqaUBKTNV-1">
          <mxGeometry x="216.5" y="970" width="403" height="70" as="geometry" />
        </mxCell>
        <mxCell id="3Cw7kzN6KSSoNnA2k862-37" value="SELESAI" style="strokeWidth=2;html=1;shape=mxgraph.flowchart.terminator;whiteSpace=wrap;" vertex="1" parent="WIyWlLk6GJQsqaUBKTNV-1">
          <mxGeometry x="366.75" y="1100" width="100" height="50" as="geometry" />
        </mxCell>
        <mxCell id="3Cw7kzN6KSSoNnA2k862-44" value="" style="edgeStyle=orthogonalEdgeStyle;rounded=0;orthogonalLoop=1;jettySize=auto;html=1;" edge="1" parent="WIyWlLk6GJQsqaUBKTNV-1" source="3Cw7kzN6KSSoNnA2k862-42" target="3Cw7kzN6KSSoNnA2k862-13">
          <mxGeometry relative="1" as="geometry" />
        </mxCell>
        <mxCell id="3Cw7kzN6KSSoNnA2k862-52" style="edgeStyle=orthogonalEdgeStyle;rounded=0;orthogonalLoop=1;jettySize=auto;html=1;entryX=0.5;entryY=0;entryDx=0;entryDy=0;" edge="1" parent="WIyWlLk6GJQsqaUBKTNV-1" source="3Cw7kzN6KSSoNnA2k862-42" target="3Cw7kzN6KSSoNnA2k862-45">
          <mxGeometry relative="1" as="geometry" />
        </mxCell>
        <mxCell id="3Cw7kzN6KSSoNnA2k862-42" value="K = 0" style="strokeWidth=2;html=1;shape=mxgraph.flowchart.decision;whiteSpace=wrap;" vertex="1" parent="WIyWlLk6GJQsqaUBKTNV-1">
          <mxGeometry x="330" y="525" width="176" height="100" as="geometry" />
        </mxCell>
        <mxCell id="3Cw7kzN6KSSoNnA2k862-45" value="&quot;KESEMPATAN&lt;br&gt;&amp;nbsp;MENEBAK ANDA HABIS&quot;" style="shape=parallelogram;html=1;strokeWidth=2;perimeter=parallelogramPerimeter;whiteSpace=wrap;rounded=1;arcSize=12;size=0.23;" vertex="1" parent="WIyWlLk6GJQsqaUBKTNV-1">
          <mxGeometry x="60" y="720" width="234.5" height="50" as="geometry" />
        </mxCell>
        <mxCell id="3Cw7kzN6KSSoNnA2k862-54" value="YA" style="text;html=1;align=center;verticalAlign=middle;resizable=0;points=[];autosize=1;strokeColor=none;fillColor=none;" vertex="1" parent="WIyWlLk6GJQsqaUBKTNV-1">
          <mxGeometry x="240" y="555" width="40" height="30" as="geometry" />
        </mxCell>
        <mxCell id="3Cw7kzN6KSSoNnA2k862-56" value="TIDAK" style="text;html=1;align=center;verticalAlign=middle;resizable=0;points=[];autosize=1;strokeColor=none;fillColor=none;" vertex="1" parent="WIyWlLk6GJQsqaUBKTNV-1">
          <mxGeometry x="407" y="625" width="60" height="30" as="geometry" />
        </mxCell>
      </root>
    </mxGraphModel>
  </diagram>
</mxfile>
